<?xml version="1.0" encoding="utf-8" ?>
<svg baseProfile="full" height="202" version="1.1" width="250" xmlns="http://www.w3.org/2000/svg" xmlns:ev="http://www.w3.org/2001/xml-events" xmlns:xlink="http://www.w3.org/1999/xlink"><defs /><path d="M 184.0,168.2 L 183.0,168.2 L 182.0,168.2 L 181.0,168.2 L 180.0,168.2 L 179.8,168.0 L 179.0,167.2 L 178.0,167.2 L 177.0,167.2 L 176.0,167.2 L 175.8,167.0 L 175.0,166.2 L 174.0,166.2 L 173.8,166.0 L 173.0,165.2 L 172.8,165.0 L 172.0,164.2 L 171.0,164.2 L 170.8,164.0 L 170.0,163.2 L 169.8,163.0 L 169.0,162.2 L 168.8,162.0 L 168.0,161.2 L 167.8,161.0 L 167.0,160.2 L 166.0,160.2 L 165.8,160.0 L 165.0,159.2 L 164.8,159.0 L 164.0,158.2 L 163.8,158.0 L 163.0,157.2 L 162.8,157.0 L 162.0,156.2 L 161.0,156.2 L 160.8,156.0 L 160.0,155.2 L 159.8,155.0 L 159.0,154.2 L 158.8,154.0 L 158.0,153.2 L 157.8,153.0 L 157.0,152.2 L 156.8,152.0 L 156.0,151.2 L 155.8,151.0 L 155.0,150.2 L 154.8,150.0 L 154.0,149.2 L 153.8,149.0 L 153.0,148.2 L 152.0,148.2 L 151.8,148.0 L 151.0,147.2 L 150.8,147.0 L 150.0,146.2 L 149.0,146.2 L 148.8,146.0 L 148.0,145.2 L 147.0,145.2 L 146.8,145.0 L 146.0,144.2 L 145.0,144.2 L 144.8,144.0 L 144.0,143.2 L 143.0,143.2 L 142.0,143.2 L 141.8,143.0 L 141.0,142.2 L 140.0,142.2 L 139.0,142.2 L 138.0,142.2 L 137.8,142.0 L 137.0,141.2 L 136.0,141.2 L 135.0,141.2 L 134.0,141.2 L 133.0,141.2 L 132.0,141.2 L 131.0,141.2 L 130.0,141.2 L 129.0,141.2 L 128.0,141.2 L 127.0,141.2 L 126.0,141.2 L 125.0,141.2 L 124.0,141.2 L 123.0,141.2 L 122.0,141.2 L 121.0,141.2 L 120.0,141.2 L 119.0,141.2 L 118.0,141.2 L 117.0,141.2 L 116.0,141.2 L 115.0,141.2 L 114.0,141.2 L 113.0,141.2 L 112.0,141.2 L 111.0,141.2 L 110.0,141.2 L 109.0,141.2 L 108.0,141.2 L 107.0,141.2 L 106.8,141.0 L 106.0,140.2 L 105.0,140.2 L 104.0,140.2 L 103.0,140.2 L 102.0,140.2 L 101.8,140.0 L 101.0,139.2 L 100.0,139.2 L 99.0,139.2 L 98.0,139.2 L 97.8,139.0 L 97.0,138.2 L 96.0,138.2 L 95.8,138.0 L 95.0,137.2 L 94.0,137.2 L 93.8,137.0 L 93.0,136.2 L 92.0,136.2 L 91.8,136.0 L 91.0,135.2 L 90.0,135.2 L 89.8,135.0 L 89.0,134.2 L 88.8,134.0 L 88.0,133.2 L 87.8,133.0 L 87.0,132.2 L 86.8,132.0 L 86.0,131.2 L 85.8,131.0 L 85.0,130.2 L 84.8,130.0 L 84.0,129.2 L 83.8,129.0 L 83.0,128.2 L 82.8,128.0 L 82.8,127.0 L 82.0,126.2 L 81.8,126.0 L 81.8,125.0 L 81.8,124.0 L 81.0,123.2 L 80.8,123.0 L 80.8,122.0 L 80.8,121.0 L 80.8,120.0 L 80.0,119.2 L 79.8,119.0 L 79.8,118.0 L 79.8,117.0 L 79.8,116.0 L 79.8,115.0 L 80.0,114.8 L 80.8,114.0 L 80.8,113.0 L 80.8,112.0 L 80.8,111.0 L 81.0,110.8 L 81.8,110.0 L 82.0,109.8 L 82.8,109.0 L 83.0,108.8 L 84.0,108.8 L 85.0,108.8 L 86.0,108.8 L 86.2,109.0 L 87.0,109.8 L 87.2,110.0 L 87.2,111.0 L 88.0,111.8 L 88.2,112.0 L 88.2,113.0 L 88.0,113.2 L 87.2,114.0 L 87.2,115.0 L 87.2,116.0 L 87.2,117.0 L 87.2,118.0 L 87.2,119.0 L 87.2,120.0 L 88.0,120.8 L 88.2,121.0 L 88.2,122.0 L 88.2,123.0 L 89.0,123.8 L 89.2,124.0 L 90.0,124.8 L 90.2,125.0 L 90.2,126.0 L 91.0,126.8 L 91.2,127.0 L 92.0,127.8 L 93.0,127.8 L 93.2,128.0 L 94.0,128.8 L 94.2,129.0 L 95.0,129.8 L 95.2,130.0 L 96.0,130.8 L 97.0,130.8 L 97.2,131.0 L 98.0,131.8 L 99.0,131.8 L 100.0,131.8 L 100.2,132.0 L 101.0,132.8 L 102.0,132.8 L 103.0,132.8 L 103.2,133.0 L 104.0,133.8 L 105.0,133.8 L 106.0,133.8 L 107.0,133.8 L 108.0,133.8 L 109.0,133.8 L 110.0,133.8 L 111.0,133.8 L 111.2,134.0 L 112.0,134.8 L 113.0,134.8 L 114.0,134.8 L 115.0,134.8 L 116.0,134.8 L 117.0,134.8 L 118.0,134.8 L 119.0,134.8 L 119.8,134.0 L 120.0,133.8 L 121.0,133.8 L 122.0,133.8 L 123.0,133.8 L 124.0,133.8 L 125.0,133.8 L 126.0,133.8 L 127.0,133.8 L 128.0,133.8 L 129.0,133.8 L 130.0,133.8 L 131.0,133.8 L 132.0,133.8 L 133.0,133.8 L 134.0,133.8 L 135.0,133.8 L 136.0,133.8 L 136.2,134.0 L 137.0,134.8 L 138.0,134.8 L 139.0,134.8 L 140.0,134.8 L 141.0,134.8 L 141.2,135.0 L 142.0,135.8 L 143.0,135.8 L 144.0,135.8 L 144.2,136.0 L 145.0,136.8 L 146.0,136.8 L 147.0,136.8 L 147.2,137.0 L 148.0,137.8 L 149.0,137.8 L 149.2,138.0 L 150.0,138.8 L 151.0,138.8 L 151.2,139.0 L 152.0,139.8 L 153.0,139.8 L 153.2,140.0 L 154.0,140.8 L 154.2,141.0 L 155.0,141.8 L 156.0,141.8 L 156.2,142.0 L 157.0,142.8 L 157.2,143.0 L 158.0,143.8 L 159.0,143.8 L 159.2,144.0 L 160.0,144.8 L 160.2,145.0 L 161.0,145.8 L 161.2,146.0 L 162.0,146.8 L 162.2,147.0 L 163.0,147.8 L 163.2,148.0 L 164.0,148.8 L 164.2,149.0 L 165.0,149.8 L 165.2,150.0 L 166.0,150.8 L 166.2,151.0 L 167.0,151.8 L 167.2,152.0 L 168.0,152.8 L 169.0,152.8 L 169.2,153.0 L 170.0,153.8 L 170.2,154.0 L 171.0,154.8 L 171.2,155.0 L 172.0,155.8 L 172.2,156.0 L 173.0,156.8 L 174.0,156.8 L 174.2,157.0 L 175.0,157.8 L 175.2,158.0 L 176.0,158.8 L 177.0,158.8 L 177.2,159.0 L 178.0,159.8 L 179.0,159.8 L 179.2,160.0 L 180.0,160.8 L 181.0,160.8 L 182.0,160.8 L 182.8,160.0 L 183.0,159.8 L 183.8,159.0 L 183.8,158.0 L 183.0,157.2 L 182.8,157.0 L 182.8,156.0 L 182.8,155.0 L 182.0,154.2 L 181.8,154.0 L 181.8,153.0 L 181.0,152.2 L 180.8,152.0 L 180.0,151.2 L 179.8,151.0 L 179.8,150.0 L 179.0,149.2 L 178.8,149.0 L 178.0,148.2 L 177.8,148.0 L 177.8,147.0 L 177.0,146.2 L 176.8,146.0 L 176.0,145.2 L 175.8,145.0 L 175.8,144.0 L 175.0,143.2 L 174.8,143.0 L 174.8,142.0 L 174.0,141.2 L 173.8,141.0 L 173.8,140.0 L 173.0,139.2 L 172.8,139.0 L 172.8,138.0 L 172.0,137.2 L 171.8,137.0 L 171.8,136.0 L 171.8,135.0 L 171.0,134.2 L 170.8,134.0 L 170.8,133.0 L 170.8,132.0 L 170.0,131.2 L 169.8,131.0 L 169.8,130.0 L 169.8,129.0 L 169.8,128.0 L 169.8,127.0 L 169.8,126.0 L 169.8,125.0 L 169.8,124.0 L 169.8,123.0 L 169.8,122.0 L 169.8,121.0 L 169.8,120.0 L 170.0,119.8 L 170.8,119.0 L 170.8,118.0 L 170.8,117.0 L 171.0,116.8 L 171.8,116.0 L 171.8,115.0 L 172.0,114.8 L 172.8,114.0 L 172.8,113.0 L 173.0,112.8 L 173.8,112.0 L 174.0,111.8 L 174.8,111.0 L 174.8,110.0 L 175.0,109.8 L 175.8,109.0 L 176.0,108.8 L 176.8,108.0 L 177.0,107.8 L 177.8,107.0 L 177.8,106.0 L 178.0,105.8 L 178.8,105.0 L 178.8,104.0 L 179.0,103.8 L 179.8,103.0 L 179.8,102.0 L 180.0,101.8 L 180.8,101.0 L 180.8,100.0 L 180.8,99.0 L 181.0,98.8 L 181.8,98.0 L 181.8,97.0 L 181.8,96.0 L 181.8,95.0 L 181.8,94.0 L 181.8,93.0 L 181.8,92.0 L 181.0,91.2 L 180.8,91.0 L 180.8,90.0 L 180.8,89.0 L 180.8,88.0 L 180.0,87.2 L 179.8,87.0 L 179.8,86.0 L 179.0,85.2 L 178.8,85.0 L 178.8,84.0 L 178.0,83.2 L 177.8,83.0 L 177.0,82.2 L 176.8,82.0 L 176.8,81.0 L 176.0,80.2 L 175.8,80.0 L 175.0,79.2 L 174.8,79.0 L 174.0,78.2 L 173.8,78.0 L 173.0,77.2 L 172.8,77.0 L 172.0,76.2 L 171.8,76.0 L 171.0,75.2 L 170.8,75.0 L 170.0,74.2 L 169.8,74.0 L 169.0,73.2 L 168.0,73.2 L 167.8,73.0 L 167.0,72.2 L 166.8,72.0 L 166.0,71.2 L 165.0,71.2 L 164.8,71.0 L 164.0,70.2 L 163.8,70.0 L 163.0,69.2 L 162.0,69.2 L 161.8,69.0 L 161.0,68.2 L 160.0,68.2 L 159.8,68.0 L 159.0,67.2 L 158.0,67.2 L 157.8,67.0 L 157.0,66.2 L 156.0,66.2 L 155.8,66.0 L 155.0,65.2 L 154.0,65.2 L 153.0,65.2 L 152.8,65.0 L 152.0,64.2 L 151.0,64.2 L 150.0,64.2 L 149.8,64.0 L 149.0,63.2 L 148.0,63.2 L 147.0,63.2 L 146.8,63.0 L 146.0,62.2 L 145.0,62.2 L 144.0,62.2 L 143.0,62.2 L 142.8,62.0 L 142.0,61.2 L 141.0,61.2 L 140.0,61.2 L 139.0,61.2 L 138.0,61.2 L 137.8,61.0 L 137.0,60.2 L 136.0,60.2 L 135.0,60.2 L 134.0,60.2 L 133.0,60.2 L 132.0,60.2 L 131.0,60.2 L 130.0,60.2 L 129.8,60.0 L 129.0,59.2 L 128.0,59.2 L 127.0,59.2 L 126.0,59.2 L 125.0,59.2 L 124.0,59.2 L 123.0,59.2 L 122.0,59.2 L 121.0,59.2 L 120.0,59.2 L 119.0,59.2 L 118.0,59.2 L 117.0,59.2 L 116.2,60.0 L 116.0,60.2 L 115.0,60.2 L 114.0,60.2 L 113.0,60.2 L 112.0,60.2 L 111.0,60.2 L 110.0,60.2 L 109.0,60.2 L 108.0,60.2 L 107.2,61.0 L 107.0,61.2 L 106.0,61.2 L 105.0,61.2 L 104.0,61.2 L 103.0,61.2 L 102.2,62.0 L 102.0,62.2 L 101.0,62.2 L 100.0,62.2 L 99.0,62.2 L 98.2,63.0 L 98.0,63.2 L 97.0,63.2 L 96.0,63.2 L 95.2,64.0 L 95.0,64.2 L 94.0,64.2 L 93.0,64.2 L 92.2,65.0 L 92.0,65.2 L 91.0,65.2 L 90.0,65.2 L 89.2,66.0 L 89.0,66.2 L 88.0,66.2 L 87.0,66.2 L 86.2,67.0 L 86.0,67.2 L 85.0,67.2 L 84.2,68.0 L 84.0,68.2 L 83.0,68.2 L 82.2,69.0 L 82.0,69.2 L 81.0,69.2 L 80.2,70.0 L 80.0,70.2 L 79.2,71.0 L 79.0,71.2 L 78.0,71.2 L 77.2,72.0 L 77.0,72.2 L 76.2,73.0 L 76.0,73.2 L 75.0,73.2 L 74.2,74.0 L 74.0,74.2 L 73.2,75.0 L 73.0,75.2 L 72.2,76.0 L 72.0,76.2 L 71.2,77.0 L 71.0,77.2 L 70.2,78.0 L 70.2,79.0 L 70.0,79.2 L 69.2,80.0 L 70.0,80.8 L 70.2,81.0 L 71.0,81.8 L 72.0,81.8 L 73.0,81.8 L 74.0,81.8 L 74.8,81.0 L 75.0,80.8 L 76.0,80.8 L 76.8,80.0 L 77.0,79.8 L 78.0,79.8 L 79.0,79.8 L 79.8,79.0 L 80.0,78.8 L 81.0,78.8 L 81.8,78.0 L 82.0,77.8 L 83.0,77.8 L 83.8,77.0 L 84.0,76.8 L 85.0,76.8 L 85.8,76.0 L 86.0,75.8 L 87.0,75.8 L 88.0,75.8 L 88.8,75.0 L 89.0,74.8 L 90.0,74.8 L 90.8,74.0 L 91.0,73.8 L 92.0,73.8 L 93.0,73.8 L 93.8,73.0 L 94.0,72.8 L 95.0,72.8 L 96.0,72.8 L 97.0,72.8 L 97.8,72.0 L 98.0,71.8 L 99.0,71.8 L 100.0,71.8 L 101.0,71.8 L 101.8,71.0 L 102.0,70.8 L 103.0,70.8 L 104.0,70.8 L 105.0,70.8 L 106.0,70.8 L 106.8,70.0 L 107.0,69.8 L 108.0,69.8 L 109.0,69.8 L 110.0,69.8 L 111.0,69.8 L 112.0,69.8 L 113.0,69.8 L 114.0,69.8 L 115.0,69.8 L 116.0,69.8 L 116.8,69.0 L 117.0,68.8 L 118.0,68.8 L 119.0,68.8 L 120.0,68.8 L 121.0,68.8 L 122.0,68.8 L 123.0,68.8 L 124.0,68.8 L 124.2,69.0 L 125.0,69.8 L 126.0,69.8 L 127.0,69.8 L 128.0,69.8 L 129.0,69.8 L 130.0,69.8 L 131.0,69.8 L 132.0,69.8 L 133.0,69.8 L 134.0,69.8 L 135.0,69.8 L 135.2,70.0 L 136.0,70.8 L 137.0,70.8 L 138.0,70.8 L 139.0,70.8 L 140.0,70.8 L 140.2,71.0 L 141.0,71.8 L 142.0,71.8 L 143.0,71.8 L 143.2,72.0 L 144.0,72.8 L 145.0,72.8 L 146.0,72.8 L 146.2,73.0 L 147.0,73.8 L 148.0,73.8 L 148.2,74.0 L 149.0,74.8 L 150.0,74.8 L 150.2,75.0 L 151.0,75.8 L 152.0,75.8 L 152.2,76.0 L 153.0,76.8 L 153.2,77.0 L 154.0,77.8 L 155.0,77.8 L 155.2,78.0 L 156.0,78.8 L 156.2,79.0 L 157.0,79.8 L 157.2,80.0 L 158.0,80.8 L 158.2,81.0 L 159.0,81.8 L 159.2,82.0 L 160.0,82.8 L 160.2,83.0 L 161.0,83.8 L 161.2,84.0 L 161.2,85.0 L 162.0,85.8 L 162.2,86.0 L 162.2,87.0 L 163.0,87.8 L 163.2,88.0 L 163.2,89.0 L 164.0,89.8 L 164.2,90.0 L 164.2,91.0 L 164.2,92.0 L 165.0,92.8 L 165.2,93.0 L 165.2,94.0 L 165.2,95.0 L 165.2,96.0 L 165.2,97.0 L 165.2,98.0 L 165.2,99.0 L 165.2,100.0 L 165.2,101.0 L 165.2,102.0 L 165.2,103.0 L 165.0,103.2 L 164.2,104.0 L 164.2,105.0 L 164.2,106.0 L 164.0,106.2 L 163.2,107.0 L 163.2,108.0 L 163.2,109.0 L 163.0,109.2 L 162.2,110.0 L 162.0,110.2 L 161.2,111.0 L 161.2,112.0 L 161.0,112.2 L 160.2,113.0 L 160.0,113.2 L 159.2,114.0 L 159.0,114.2 L 158.2,115.0 L 158.0,115.2 L 157.2,116.0 L 157.0,116.2 L 156.2,117.0 L 156.0,117.2 L 155.2,118.0 L 155.0,118.2 L 154.0,118.2 L 153.2,119.0 L 153.0,119.2 L 152.0,119.2 L 151.2,120.0 L 151.0,120.2 L 150.2,121.0 L 150.0,121.2 L 149.0,121.2 L 148.0,121.2 L 147.2,122.0 L 147.0,122.2 L 146.0,122.2 L 145.2,123.0 L 145.0,123.2 L 144.0,123.2 L 143.0,123.2 L 142.2,124.0 L 142.0,124.2 L 141.0,124.2 L 140.0,124.2 L 139.2,125.0 L 139.0,125.2 L 138.0,125.2 L 137.0,125.2 L 136.0,125.2 L 135.0,125.2 L 134.2,126.0 L 134.0,126.2 L 133.0,126.2 L 132.0,126.2 L 131.0,126.2 L 130.0,126.2 L 129.0,126.2 L 128.0,126.2 L 127.0,126.2 L 126.0,126.2 L 125.2,127.0 L 125.0,127.2 L 124.0,127.2 L 123.0,127.2 L 122.0,127.2 L 121.0,127.2 L 120.0,127.2 L 119.0,127.2 L 118.0,127.2 L 117.0,127.2 L 116.0,127.2 L 115.8,127.0 L 115.0,126.2 L 114.0,126.2 L 113.0,126.2 L 112.0,126.2 L 111.0,126.2 L 110.0,126.2 L 109.0,126.2 L 108.8,126.0 L 108.0,125.2 L 107.0,125.2 L 106.0,125.2 L 105.0,125.2 L 104.8,125.0 L 104.0,124.2 L 103.0,124.2 L 102.8,124.0 L 102.0,123.2 L 101.8,123.0 L 101.0,122.2 L 100.0,122.2 L 99.8,122.0 L 99.8,121.0 L 99.0,120.2 L 98.8,120.0 L 98.0,119.2 L 97.8,119.0 L 97.8,118.0 L 97.8,117.0 L 97.0,116.2 L 96.8,116.0 L 96.8,115.0 L 96.8,114.0 L 96.8,113.0 L 97.0,112.8 L 97.8,112.0 L 97.8,111.0 L 97.8,110.0 L 98.0,109.8 L 98.8,109.0 L 99.0,108.8 L 99.8,108.0 L 99.8,107.0 L 100.0,106.8 L 100.8,106.0 L 101.0,105.8 L 102.0,105.8 L 102.8,105.0 L 103.0,104.8 L 103.8,104.0 L 104.0,103.8 L 105.0,103.8 L 105.8,103.0 L 106.0,102.8 L 107.0,102.8 L 108.0,102.8 L 108.8,102.0 L 109.0,101.8 L 110.0,101.8 L 111.0,101.8 L 111.8,101.0 L 112.0,100.8 L 113.0,100.8 L 114.0,100.8 L 115.0,100.8 L 116.0,100.8 L 116.8,100.0 L 117.0,99.8 L 118.0,99.8 L 119.0,99.8 L 120.0,99.8 L 121.0,99.8 L 122.0,99.8 L 123.0,99.8 L 124.0,99.8 L 125.0,99.8 L 126.0,99.8 L 127.0,99.8 L 128.0,99.8 L 129.0,99.8 L 130.0,99.8 L 131.0,99.8 L 132.0,99.8 L 133.0,99.8 L 134.0,99.8 L 135.0,99.8 L 135.8,99.0 L 136.0,98.8 L 137.0,98.8 L 137.8,98.0 L 137.8,97.0 L 137.8,96.0 L 137.0,95.2 L 136.8,95.0 L 136.0,94.2 L 135.0,94.2 L 134.0,94.2 L 133.8,94.0 L 133.0,93.2 L 132.0,93.2 L 131.0,93.2 L 130.0,93.2 L 129.0,93.2 L 128.0,93.2 L 127.0,93.2 L 126.0,93.2 L 125.0,93.2 L 124.0,93.2 L 123.0,93.2 L 122.0,93.2 L 121.0,93.2 L 120.0,93.2 L 119.0,93.2 L 118.0,93.2 L 117.0,93.2 L 116.0,93.2 L 115.0,93.2 L 114.0,93.2 L 113.0,93.2 L 112.2,94.0 L 112.0,94.2 L 111.0,94.2 L 110.0,94.2 L 109.0,94.2 L 108.2,95.0 L 108.0,95.2 L 107.0,95.2 L 106.0,95.2 L 105.0,95.2 L 104.2,96.0 L 104.0,96.2 L 103.0,96.2 L 102.0,96.2 L 101.2,97.0 L 101.0,97.2 L 100.0,97.2 L 99.0,97.2 L 98.2,98.0 L 98.0,98.2 L 97.0,98.2 L 96.2,99.0 L 96.0,99.2 L 95.0,99.2 L 94.2,100.0 L 94.0,100.2 L 93.0,100.2 L 92.0,100.2 L 91.2,101.0 L 91.0,101.2 L 90.0,101.2 L 89.2,102.0 L 89.0,102.2 L 88.0,102.2 L 87.2,103.0 L 87.0,103.2 L 86.0,103.2 L 85.0,103.2 L 84.2,104.0 L 84.0,104.2 L 83.0,104.2 L 82.2,105.0 L 82.0,105.2 L 81.0,105.2 L 80.0,105.2 L 79.2,106.0 L 79.0,106.2 L 78.0,106.2 L 77.0,106.2 L 76.2,107.0 L 76.0,107.2 L 75.0,107.2 L 74.0,107.2 L 73.2,108.0 L 73.0,108.2 L 72.0,108.2 L 71.0,108.2 L 70.0,108.2 L 69.0,108.2 L 68.0,108.2 L 67.2,109.0 L 67.0,109.2 L 66.0,109.2 L 65.0,109.2 L 64.0,109.2 L 63.0,109.2 L 62.0,109.2 L 61.0,109.2 L 60.0,109.2 L 59.8,109.0 L 59.0,108.2 L 58.0,108.2 L 57.0,108.2 L 56.0,108.2 L 55.8,108.0 L 55.0,107.2 L 54.0,107.2 L 53.0,107.2 L 52.8,107.0 L 52.0,106.2 L 51.0,106.2 L 50.8,106.0 L 50.0,105.2 L 49.8,105.0 L 49.0,104.2 L 48.0,104.2 L 47.8,104.0 L 47.0,103.2 L 46.8,103.0 L 46.0,102.2 L 45.8,102.0 L 45.8,101.0 L 45.0,100.2 L 44.8,100.0 L 44.0,99.2 L 43.8,99.0 L 43.8,98.0 L 43.0,97.2 L 42.8,97.0 L 42.8,96.0 L 42.0,95.2 L 41.8,95.0 L 41.8,94.0 L 41.8,93.0 L 41.0,92.2 L 40.8,92.0 L 40.8,91.0 L 40.8,90.0 L 40.8,89.0 L 40.8,88.0 L 40.8,87.0 L 40.8,86.0 L 40.8,85.0 L 40.8,84.0 L 40.8,83.0 L 40.8,82.0 L 40.8,81.0 L 41.0,80.8 L 41.8,80.0 L 41.8,79.0 L 41.8,78.0 L 41.8,77.0 L 42.0,76.8 L 42.8,76.0 L 42.8,75.0 L 42.8,74.0 L 43.0,73.8 L 43.8,73.0 L 43.8,72.0 L 44.0,71.8 L 44.8,71.0 L 44.8,70.0 L 45.0,69.8 L 45.8,69.0 L 45.8,68.0 L 46.0,67.8 L 46.8,67.0 L 46.8,66.0 L 47.0,65.8 L 47.8,65.0 L 48.0,64.8 L 48.8,64.0 L 48.8,63.0 L 49.0,62.8 L 49.8,62.0 L 50.0,61.8 L 50.8,61.0 L 51.0,60.8 L 51.8,60.0 L 52.0,59.8 L 52.8,59.0 L 52.8,58.0 L 53.0,57.8 L 53.8,57.0 L 54.0,56.8 L 54.8,56.0 L 55.0,55.8 L 55.8,55.0 L 56.0,54.8 L 57.0,54.8 L 57.8,54.0 L 58.0,53.8 L 58.8,53.0 L 59.0,52.8 L 59.8,52.0 L 60.0,51.8 L 60.8,51.0 L 61.0,50.8 L 62.0,50.8 L 62.8,50.0 L 63.0,49.8 L 63.8,49.0 L 64.0,48.8 L 64.8,48.0 L 65.0,47.8 L 66.0,47.8 L 66.8,47.0 L 67.0,46.8 L 68.0,46.8 L 68.8,46.0 L 69.0,45.8 L 69.8,45.0 L 70.0,44.8 L 71.0,44.8 L 71.8,44.0 L 72.0,43.8 L 73.0,43.8 L 73.8,43.0 L 74.0,42.8 L 75.0,42.8 L 75.8,42.0 L 76.0,41.8 L 77.0,41.8 L 78.0,41.8 L 78.8,41.0 L 79.0,40.8 L 80.0,40.8 L 80.8,40.0 L 81.0,39.8 L 82.0,39.8 L 83.0,39.8 L 83.8,39.0 L 84.0,38.8 L 85.0,38.8 L 86.0,38.8 L 86.8,38.0 L 87.0,37.8 L 88.0,37.8 L 89.0,37.8 L 89.8,37.0 L 90.0,36.8 L 91.0,36.8 L 92.0,36.8 L 93.0,36.8 L 93.8,36.0 L 94.0,35.8 L 95.0,35.8 L 96.0,35.8 L 97.0,35.8 L 97.8,35.0 L 98.0,34.8 L 99.0,34.8 L 100.0,34.8 L 101.0,34.8 L 102.0,34.8 L 103.0,34.8 L 103.8,34.0 L 104.0,33.8 L 105.0,33.8 L 106.0,33.8 L 107.0,33.8 L 108.0,33.8 L 109.0,33.8 L 110.0,33.8 L 111.0,33.8 L 111.8,33.0 L 112.0,32.8 L 113.0,32.8 L 114.0,32.8 L 115.0,32.8 L 116.0,32.8 L 117.0,32.8 L 118.0,32.8 L 119.0,32.8 L 120.0,32.8 L 121.0,32.8 L 122.0,32.8 L 123.0,32.8 L 124.0,32.8 L 125.0,32.8 L 126.0,32.8 L 127.0,32.8 L 128.0,32.8 L 129.0,32.8 L 130.0,32.8 L 131.0,32.8 L 132.0,32.8 L 132.2,33.0 L 133.0,33.8 L 134.0,33.8 L 135.0,33.8 L 136.0,33.8 L 137.0,33.8 L 138.0,33.8 L 139.0,33.8 L 140.0,33.8 L 141.0,33.8 L 141.2,34.0 L 142.0,34.8 L 143.0,34.8 L 144.0,34.8 L 145.0,34.8 L 146.0,34.8 L 146.2,35.0 L 147.0,35.8 L 148.0,35.8 L 149.0,35.8 L 150.0,35.8 L 150.2,36.0 L 151.0,36.8 L 152.0,36.8 L 153.0,36.8 L 154.0,36.8 L 154.2,37.0 L 155.0,37.8 L 156.0,37.8 L 157.0,37.8 L 157.2,38.0 L 158.0,38.8 L 159.0,38.8 L 160.0,38.8 L 160.2,39.0 L 161.0,39.8 L 162.0,39.8 L 163.0,39.8 L 163.2,40.0 L 164.0,40.8 L 165.0,40.8 L 165.2,41.0 L 166.0,41.8 L 167.0,41.8 L 168.0,41.8 L 168.2,42.0 L 169.0,42.8 L 170.0,42.8 L 170.2,43.0 L 171.0,43.8 L 172.0,43.8 L 172.2,44.0 L 173.0,44.8 L 174.0,44.8 L 174.2,45.0 L 175.0,45.8 L 175.2,46.0 L 176.0,46.8 L 177.0,46.8 L 177.2,47.0 L 178.0,47.8 L 179.0,47.8 L 179.2,48.0 L 180.0,48.8 L 180.2,49.0 L 181.0,49.8 L 182.0,49.8 L 182.2,50.0 L 183.0,50.8 L 183.2,51.0 L 184.0,51.8 L 184.2,52.0 L 185.0,52.8 L 186.0,52.8 L 186.2,53.0 L 187.0,53.8 L 187.2,54.0 L 188.0,54.8 L 188.2,55.0 L 189.0,55.8 L 189.2,56.0 L 190.0,56.8 L 190.2,57.0 L 191.0,57.8 L 191.2,58.0 L 192.0,58.8 L 192.2,59.0 L 193.0,59.8 L 193.2,60.0 L 194.0,60.8 L 194.2,61.0 L 195.0,61.8 L 195.2,62.0 L 196.0,62.8 L 196.2,63.0 L 197.0,63.8 L 197.2,64.0 L 197.2,65.0 L 198.0,65.8 L 198.2,66.0 L 199.0,66.8 L 199.2,67.0 L 200.0,67.8 L 200.2,68.0 L 200.2,69.0 L 201.0,69.8 L 201.2,70.0 L 201.2,71.0 L 202.0,71.8 L 202.2,72.0 L 202.2,73.0 L 203.0,73.8 L 203.2,74.0 L 203.2,75.0 L 204.0,75.8 L 204.2,76.0 L 204.2,77.0 L 205.0,77.8 L 205.2,78.0 L 205.2,79.0 L 206.0,79.8 L 206.2,80.0 L 206.2,81.0 L 206.2,82.0 L 206.2,83.0 L 207.0,83.8 L 207.2,84.0 L 207.2,85.0 L 207.2,86.0 L 207.2,87.0 L 208.0,87.8 L 208.2,88.0 L 208.2,89.0 L 208.2,90.0 L 208.2,91.0 L 208.2,92.0 L 208.2,93.0 L 208.2,94.0 L 208.2,95.0 L 208.2,96.0 L 208.2,97.0 L 208.2,98.0 L 208.2,99.0 L 208.2,100.0 L 208.2,101.0 L 208.0,101.2 L 207.2,102.0 L 207.2,103.0 L 207.2,104.0 L 207.2,105.0 L 207.0,105.2 L 206.2,106.0 L 206.2,107.0 L 206.2,108.0 L 206.0,108.2 L 205.2,109.0 L 205.2,110.0 L 205.2,111.0 L 205.0,111.2 L 204.2,112.0 L 204.2,113.0 L 204.0,113.2 L 203.2,114.0 L 203.2,115.0 L 203.0,115.2 L 202.2,116.0 L 202.2,117.0 L 202.0,117.2 L 201.2,118.0 L 201.0,118.2 L 200.2,119.0 L 200.2,120.0 L 200.0,120.2 L 199.2,121.0 L 199.0,121.2 L 198.2,122.0 L 198.2,123.0 L 198.0,123.2 L 197.2,124.0 L 197.0,124.2 L 196.2,125.0 L 196.0,125.2 L 195.2,126.0 L 195.0,126.2 L 194.2,127.0 L 194.0,127.2 L 193.2,128.0 L 193.0,128.2 L 192.2,129.0 L 192.0,129.2 L 191.2,130.0 L 191.0,130.2 L 190.0,130.2 L 189.2,131.0 L 189.0,131.2 L 188.0,131.2 L 187.0,131.2 L 186.0,131.2 L 185.8,131.0 L 185.0,130.2 L 184.8,130.0 L 184.8,129.0 L 184.0,128.2 L 183.8,128.0 L 183.8,127.0 L 184.0,126.8 L 184.8,126.0 L 185.0,125.8 L 185.8,125.0 L 186.0,124.8 L 186.8,124.0 L 187.0,123.8 L 187.8,123.0 L 188.0,122.8 L 188.8,122.0 L 189.0,121.8 L 189.8,121.0 L 190.0,120.8 L 190.8,120.0 L 191.0,119.8 L 191.8,119.0 L 192.0,118.8 L 192.8,118.0 L 193.0,117.8 L 193.8,117.0 L 193.8,116.0 L 194.0,115.8 L 194.8,115.0 L 195.0,114.8 L 195.8,114.0 L 195.8,113.0 L 196.0,112.8 L 196.8,112.0 L 196.8,111.0 L 197.0,110.8 L 197.8,110.0 L 197.8,109.0 L 198.0,108.8 L 198.8,108.0 L 198.8,107.0 L 198.8,106.0 L 199.0,105.8 L 199.8,105.0 L 199.8,104.0 L 199.8,103.0 L 200.0,102.8 L 200.8,102.0 L 200.8,101.0 L 200.8,100.0 L 200.8,99.0 L 200.8,98.0 L 200.8,97.0 L 200.8,96.0 L 200.8,95.0 L 200.8,94.0 L 200.8,93.0 L 200.8,92.0 L 200.8,91.0 L 200.8,90.0 L 200.8,89.0 L 200.8,88.0 L 200.8,87.0 L 200.0,86.2 L 199.8,86.0 L 199.8,85.0 L 199.8,84.0 L 199.0,83.2 L 198.8,83.0 L 198.8,82.0 L 198.8,81.0 L 198.0,80.2 L 197.8,80.0 L 197.8,79.0 L 197.0,78.2 L 196.8,78.0 L 196.8,77.0 L 196.0,76.2 L 195.8,76.0 L 195.8,75.0 L 195.0,74.2 L 194.8,74.0 L 194.8,73.0 L 194.0,72.2 L 193.8,72.0 L 193.0,71.2 L 192.8,71.0 L 192.8,70.0 L 192.0,69.2 L 191.8,69.0 L 191.0,68.2 L 190.8,68.0 L 190.0,67.2 L 189.8,67.0 L 189.0,66.2 L 188.8,66.0 L 188.0,65.2 L 187.8,65.0 L 187.0,64.2 L 186.8,64.0 L 186.0,63.2 L 185.8,63.0 L 185.0,62.2 L 184.8,62.0 L 184.0,61.2 L 183.8,61.0 L 183.0,60.2 L 182.8,60.0 L 182.0,59.2 L 181.8,59.0 L 181.0,58.2 L 180.8,58.0 L 180.0,57.2 L 179.0,57.2 L 178.8,57.0 L 178.0,56.2 L 177.8,56.0 L 177.0,55.2 L 176.0,55.2 L 175.8,55.0 L 175.0,54.2 L 174.8,54.0 L 174.0,53.2 L 173.0,53.2 L 172.8,53.0 L 172.0,52.2 L 171.0,52.2 L 170.8,52.0 L 170.0,51.2 L 169.8,51.0 L 169.0,50.2 L 168.0,50.2 L 167.8,50.0 L 167.0,49.2 L 166.0,49.2 L 165.8,49.0 L 165.0,48.2 L 164.0,48.2 L 163.0,48.2 L 162.8,48.0 L 162.0,47.2 L 161.0,47.2 L 160.8,47.0 L 160.0,46.2 L 159.0,46.2 L 158.0,46.2 L 157.8,46.0 L 157.0,45.2 L 156.0,45.2 L 155.0,45.2 L 154.8,45.0 L 154.0,44.2 L 153.0,44.2 L 152.0,44.2 L 151.8,44.0 L 151.0,43.2 L 150.0,43.2 L 149.0,43.2 L 148.0,43.2 L 147.8,43.0 L 147.0,42.2 L 146.0,42.2 L 145.0,42.2 L 144.0,42.2 L 143.0,42.2 L 142.8,42.0 L 142.0,41.2 L 141.0,41.2 L 140.0,41.2 L 139.0,41.2 L 138.0,41.2 L 137.0,41.2 L 136.0,41.2 L 135.8,41.0 L 135.0,40.2 L 134.0,40.2 L 133.0,40.2 L 132.0,40.2 L 131.0,40.2 L 130.0,40.2 L 129.0,40.2 L 128.0,40.2 L 127.0,40.2 L 126.0,40.2 L 125.0,40.2 L 124.0,40.2 L 123.0,40.2 L 122.0,40.2 L 121.0,40.2 L 120.0,40.2 L 119.0,40.2 L 118.0,40.2 L 117.0,40.2 L 116.0,40.2 L 115.0,40.2 L 114.0,40.2 L 113.0,40.2 L 112.0,40.2 L 111.0,40.2 L 110.0,40.2 L 109.0,40.2 L 108.2,41.0 L 108.0,41.2 L 107.0,41.2 L 106.0,41.2 L 105.0,41.2 L 104.0,41.2 L 103.0,41.2 L 102.0,41.2 L 101.2,42.0 L 101.0,42.2 L 100.0,42.2 L 99.0,42.2 L 98.0,42.2 L 97.0,42.2 L 96.2,43.0 L 96.0,43.2 L 95.0,43.2 L 94.0,43.2 L 93.0,43.2 L 92.2,44.0 L 92.0,44.2 L 91.0,44.2 L 90.0,44.2 L 89.2,45.0 L 89.0,45.2 L 88.0,45.2 L 87.0,45.2 L 86.2,46.0 L 86.0,46.2 L 85.0,46.2 L 84.0,46.2 L 83.2,47.0 L 83.0,47.2 L 82.0,47.2 L 81.2,48.0 L 81.0,48.2 L 80.0,48.2 L 79.0,48.2 L 78.2,49.0 L 78.0,49.2 L 77.0,49.2 L 76.2,50.0 L 76.0,50.2 L 75.0,50.2 L 74.2,51.0 L 74.0,51.2 L 73.2,52.0 L 73.0,52.2 L 72.0,52.2 L 71.2,53.0 L 71.0,53.2 L 70.0,53.2 L 69.2,54.0 L 69.0,54.2 L 68.2,55.0 L 68.0,55.2 L 67.0,55.2 L 66.2,56.0 L 66.0,56.2 L 65.2,57.0 L 65.0,57.2 L 64.2,58.0 L 64.0,58.2 L 63.0,58.2 L 62.2,59.0 L 62.0,59.2 L 61.2,60.0 L 61.0,60.2 L 60.2,61.0 L 60.0,61.2 L 59.2,62.0 L 59.0,62.2 L 58.2,63.0 L 58.0,63.2 L 57.2,64.0 L 57.0,64.2 L 56.2,65.0 L 56.2,66.0 L 56.0,66.2 L 55.2,67.0 L 55.0,67.2 L 54.2,68.0 L 54.0,68.2 L 53.2,69.0 L 53.2,70.0 L 53.0,70.2 L 52.2,71.0 L 52.2,72.0 L 52.0,72.2 L 51.2,73.0 L 51.2,74.0 L 51.0,74.2 L 50.2,75.0 L 50.2,76.0 L 50.0,76.2 L 49.2,77.0 L 49.2,78.0 L 49.2,79.0 L 49.2,80.0 L 49.0,80.2 L 48.2,81.0 L 48.2,82.0 L 48.2,83.0 L 48.2,84.0 L 48.2,85.0 L 48.2,86.0 L 48.2,87.0 L 48.2,88.0 L 48.2,89.0 L 48.2,90.0 L 48.2,91.0 L 48.2,92.0 L 49.0,92.8 L 49.2,93.0 L 49.2,94.0 L 50.0,94.8 L 50.2,95.0 L 50.2,96.0 L 51.0,96.8 L 51.2,97.0 L 52.0,97.8 L 52.2,98.0 L 53.0,98.8 L 53.2,99.0 L 54.0,99.8 L 55.0,99.8 L 55.2,100.0 L 56.0,100.8 L 57.0,100.8 L 58.0,100.8 L 58.2,101.0 L 59.0,101.8 L 60.0,101.8 L 61.0,101.8 L 62.0,101.8 L 63.0,101.8 L 64.0,101.8 L 65.0,101.8 L 66.0,101.8 L 67.0,101.8 L 68.0,101.8 L 69.0,101.8 L 69.8,101.0 L 70.0,100.8 L 71.0,100.8 L 72.0,100.8 L 73.0,100.8 L 73.8,100.0 L 74.0,99.8 L 75.0,99.8 L 76.0,99.8 L 76.8,99.0 L 77.0,98.8 L 78.0,98.8 L 79.0,98.8 L 79.8,98.0 L 80.0,97.8 L 81.0,97.8 L 81.8,97.0 L 82.0,96.8 L 83.0,96.8 L 84.0,96.8 L 84.8,96.0 L 85.0,95.8 L 86.0,95.8 L 86.8,95.0 L 87.0,94.8 L 88.0,94.8 L 88.8,94.0 L 89.0,93.8 L 90.0,93.8 L 91.0,93.8 L 91.8,93.0 L 92.0,92.8 L 93.0,92.8 L 93.8,92.0 L 94.0,91.8 L 95.0,91.8 L 95.8,91.0 L 96.0,90.8 L 97.0,90.8 L 98.0,90.8 L 98.8,90.0 L 99.0,89.8 L 100.0,89.8 L 101.0,89.8 L 101.8,89.0 L 102.0,88.8 L 103.0,88.8 L 104.0,88.8 L 104.8,88.0 L 105.0,87.8 L 106.0,87.8 L 107.0,87.8 L 108.0,87.8 L 108.8,87.0 L 109.0,86.8 L 110.0,86.8 L 111.0,86.8 L 112.0,86.8 L 113.0,86.8 L 114.0,86.8 L 115.0,86.8 L 115.8,86.0 L 116.0,85.8 L 117.0,85.8 L 118.0,85.8 L 119.0,85.8 L 120.0,85.8 L 121.0,85.8 L 122.0,85.8 L 123.0,85.8 L 124.0,85.8 L 125.0,85.8 L 126.0,85.8 L 127.0,85.8 L 128.0,85.8 L 129.0,85.8 L 130.0,85.8 L 131.0,85.8 L 131.2,86.0 L 132.0,86.8 L 133.0,86.8 L 134.0,86.8 L 135.0,86.8 L 136.0,86.8 L 136.2,87.0 L 137.0,87.8 L 138.0,87.8 L 138.2,88.0 L 139.0,88.8 L 140.0,88.8 L 140.2,89.0 L 141.0,89.8 L 142.0,89.8 L 142.2,90.0 L 143.0,90.8 L 143.2,91.0 L 143.2,92.0 L 144.0,92.8 L 144.2,93.0 L 145.0,93.8 L 145.2,94.0 L 145.2,95.0 L 145.2,96.0 L 145.2,97.0 L 145.2,98.0 L 145.2,99.0 L 145.0,99.2 L 144.2,100.0 L 144.2,101.0 L 144.0,101.2 L 143.2,102.0 L 143.2,103.0 L 143.0,103.2 L 142.0,103.2 L 141.2,104.0 L 141.0,104.2 L 140.2,105.0 L 140.0,105.2 L 139.0,105.2 L 138.2,106.0 L 138.0,106.2 L 137.0,106.2 L 136.0,106.2 L 135.0,106.2 L 134.2,107.0 L 134.0,107.2 L 133.0,107.2 L 132.0,107.2 L 131.0,107.2 L 130.0,107.2 L 129.0,107.2 L 128.0,107.2 L 127.0,107.2 L 126.0,107.2 L 125.0,107.2 L 124.0,107.2 L 123.0,107.2 L 122.0,107.2 L 121.0,107.2 L 120.0,107.2 L 119.0,107.2 L 118.0,107.2 L 117.0,107.2 L 116.0,107.2 L 115.0,107.2 L 114.2,108.0 L 114.0,108.2 L 113.0,108.2 L 112.0,108.2 L 111.0,108.2 L 110.2,109.0 L 110.0,109.2 L 109.0,109.2 L 108.2,110.0 L 108.0,110.2 L 107.0,110.2 L 106.2,111.0 L 106.0,111.2 L 105.2,112.0 L 105.0,112.2 L 104.2,113.0 L 104.2,114.0 L 104.2,115.0 L 104.2,116.0 L 105.0,116.8 L 105.2,117.0 L 106.0,117.8 L 107.0,117.8 L 107.2,118.0 L 108.0,118.8 L 109.0,118.8 L 110.0,118.8 L 111.0,118.8 L 111.2,119.0 L 112.0,119.8 L 113.0,119.8 L 114.0,119.8 L 115.0,119.8 L 116.0,119.8 L 117.0,119.8 L 118.0,119.8 L 119.0,119.8 L 120.0,119.8 L 121.0,119.8 L 122.0,119.8 L 123.0,119.8 L 124.0,119.8 L 125.0,119.8 L 126.0,119.8 L 127.0,119.8 L 128.0,119.8 L 129.0,119.8 L 129.8,119.0 L 130.0,118.8 L 131.0,118.8 L 132.0,118.8 L 133.0,118.8 L 134.0,118.8 L 135.0,118.8 L 135.8,118.0 L 136.0,117.8 L 137.0,117.8 L 138.0,117.8 L 139.0,117.8 L 139.8,117.0 L 140.0,116.8 L 141.0,116.8 L 142.0,116.8 L 142.8,116.0 L 143.0,115.8 L 144.0,115.8 L 145.0,115.8 L 145.8,115.0 L 146.0,114.8 L 147.0,114.8 L 147.8,114.0 L 148.0,113.8 L 148.8,113.0 L 149.0,112.8 L 150.0,112.8 L 150.8,112.0 L 151.0,111.8 L 151.8,111.0 L 152.0,110.8 L 152.8,110.0 L 153.0,109.8 L 153.8,109.0 L 154.0,108.8 L 154.8,108.0 L 155.0,107.8 L 155.8,107.0 L 156.0,106.8 L 156.8,106.0 L 156.8,105.0 L 156.8,104.0 L 157.0,103.8 L 157.8,103.0 L 157.8,102.0 L 157.8,101.0 L 157.8,100.0 L 157.8,99.0 L 157.8,98.0 L 157.8,97.0 L 157.8,96.0 L 157.8,95.0 L 157.8,94.0 L 157.8,93.0 L 157.0,92.2 L 156.8,92.0 L 156.8,91.0 L 156.0,90.2 L 155.8,90.0 L 155.8,89.0 L 155.0,88.2 L 154.8,88.0 L 154.0,87.2 L 153.8,87.0 L 153.0,86.2 L 152.8,86.0 L 152.0,85.2 L 151.8,85.0 L 151.0,84.2 L 150.8,84.0 L 150.0,83.2 L 149.8,83.0 L 149.0,82.2 L 148.0,82.2 L 147.8,82.0 L 147.0,81.2 L 146.0,81.2 L 145.8,81.0 L 145.0,80.2 L 144.0,80.2 L 143.8,80.0 L 143.0,79.2 L 142.0,79.2 L 141.0,79.2 L 140.8,79.0 L 140.0,78.2 L 139.0,78.2 L 138.0,78.2 L 137.0,78.2 L 136.8,78.0 L 136.0,77.2 L 135.0,77.2 L 134.0,77.2 L 133.0,77.2 L 132.0,77.2 L 131.0,77.2 L 130.0,77.2 L 129.8,77.0 L 129.0,76.2 L 128.0,76.2 L 127.0,76.2 L 126.0,76.2 L 125.0,76.2 L 124.0,76.2 L 123.0,76.2 L 122.0,76.2 L 121.0,76.2 L 120.0,76.2 L 119.0,76.2 L 118.0,76.2 L 117.0,76.2 L 116.0,76.2 L 115.0,76.2 L 114.0,76.2 L 113.0,76.2 L 112.0,76.2 L 111.2,77.0 L 111.0,77.2 L 110.0,77.2 L 109.0,77.2 L 108.0,77.2 L 107.0,77.2 L 106.0,77.2 L 105.0,77.2 L 104.2,78.0 L 104.0,78.2 L 103.0,78.2 L 102.0,78.2 L 101.0,78.2 L 100.2,79.0 L 100.0,79.2 L 99.0,79.2 L 98.0,79.2 L 97.2,80.0 L 97.0,80.2 L 96.0,80.2 L 95.0,80.2 L 94.2,81.0 L 94.0,81.2 L 93.0,81.2 L 92.0,81.2 L 91.2,82.0 L 91.0,82.2 L 90.0,82.2 L 89.0,82.2 L 88.2,83.0 L 88.0,83.2 L 87.0,83.2 L 86.2,84.0 L 86.0,84.2 L 85.0,84.2 L 84.2,85.0 L 84.0,85.2 L 83.0,85.2 L 82.2,86.0 L 82.0,86.2 L 81.0,86.2 L 80.0,86.2 L 79.2,87.0 L 79.0,87.2 L 78.0,87.2 L 77.2,88.0 L 77.0,88.2 L 76.0,88.2 L 75.0,88.2 L 74.0,88.2 L 73.0,88.2 L 72.2,89.0 L 72.0,89.2 L 71.0,89.2 L 70.0,89.2 L 69.0,89.2 L 68.0,89.2 L 67.8,89.0 L 67.0,88.2 L 66.0,88.2 L 65.8,88.0 L 65.0,87.2 L 64.0,87.2 L 63.8,87.0 L 63.0,86.2 L 62.8,86.0 L 62.8,85.0 L 62.0,84.2 L 61.8,84.0 L 61.8,83.0 L 61.8,82.0 L 61.8,81.0 L 61.8,80.0 L 61.8,79.0 L 61.8,78.0 L 62.0,77.8 L 62.8,77.0 L 62.8,76.0 L 63.0,75.8 L 63.8,75.0 L 63.8,74.0 L 64.0,73.8 L 64.8,73.0 L 65.0,72.8 L 65.8,72.0 L 66.0,71.8 L 66.8,71.0 L 67.0,70.8 L 67.8,70.0 L 68.0,69.8 L 68.8,69.0 L 69.0,68.8 L 69.8,68.0 L 70.0,67.8 L 71.0,67.8 L 71.8,67.0 L 72.0,66.8 L 72.8,66.0 L 73.0,65.8 L 74.0,65.8 L 74.8,65.0 L 75.0,64.8 L 75.8,64.0 L 76.0,63.8 L 77.0,63.8 L 77.8,63.0 L 78.0,62.8 L 79.0,62.8 L 79.8,62.0 L 80.0,61.8 L 81.0,61.8 L 81.8,61.0 L 82.0,60.8 L 83.0,60.8 L 83.8,60.0 L 84.0,59.8 L 85.0,59.8 L 86.0,59.8 L 86.8,59.0 L 87.0,58.8 L 88.0,58.8 L 88.8,58.0 L 89.0,57.8 L 90.0,57.8 L 91.0,57.8 L 91.8,57.0 L 92.0,56.8 L 93.0,56.8 L 94.0,56.8 L 95.0,56.8 L 95.8,56.0 L 96.0,55.8 L 97.0,55.8 L 98.0,55.8 L 99.0,55.8 L 99.8,55.0 L 100.0,54.8 L 101.0,54.8 L 102.0,54.8 L 103.0,54.8 L 103.8,54.0 L 104.0,53.8 L 105.0,53.8 L 106.0,53.8 L 107.0,53.8 L 108.0,53.8 L 109.0,53.8 L 109.8,53.0 L 110.0,52.8 L 111.0,52.8 L 112.0,52.8 L 113.0,52.8 L 114.0,52.8 L 115.0,52.8 L 116.0,52.8 L 117.0,52.8 L 118.0,52.8 L 119.0,52.8 L 120.0,52.8 L 121.0,52.8 L 122.0,52.8 L 123.0,52.8 L 124.0,52.8 L 125.0,52.8 L 126.0,52.8 L 127.0,52.8 L 128.0,52.8 L 129.0,52.8 L 130.0,52.8 L 131.0,52.8 L 132.0,52.8 L 133.0,52.8 L 134.0,52.8 L 135.0,52.8 L 135.2,53.0 L 136.0,53.8 L 137.0,53.8 L 138.0,53.8 L 139.0,53.8 L 140.0,53.8 L 141.0,53.8 L 141.2,54.0 L 142.0,54.8 L 143.0,54.8 L 144.0,54.8 L 145.0,54.8 L 146.0,54.8 L 146.2,55.0 L 147.0,55.8 L 148.0,55.8 L 149.0,55.8 L 149.2,56.0 L 150.0,56.8 L 151.0,56.8 L 152.0,56.8 L 153.0,56.8 L 153.2,57.0 L 154.0,57.8 L 155.0,57.8 L 155.2,58.0 L 156.0,58.8 L 157.0,58.8 L 158.0,58.8 L 158.2,59.0 L 159.0,59.8 L 160.0,59.8 L 160.2,60.0 L 161.0,60.8 L 162.0,60.8 L 162.2,61.0 L 163.0,61.8 L 164.0,61.8 L 164.2,62.0 L 165.0,62.8 L 166.0,62.8 L 166.2,63.0 L 167.0,63.8 L 168.0,63.8 L 168.2,64.0 L 169.0,64.8 L 169.2,65.0 L 170.0,65.8 L 171.0,65.8 L 171.2,66.0 L 172.0,66.8 L 172.2,67.0 L 173.0,67.8 L 173.2,68.0 L 174.0,68.8 L 174.2,69.0 L 175.0,69.8 L 176.0,69.8 L 176.2,70.0 L 177.0,70.8 L 177.2,71.0 L 178.0,71.8 L 178.2,72.0 L 179.0,72.8 L 179.2,73.0 L 180.0,73.8 L 180.2,74.0 L 181.0,74.8 L 181.2,75.0 L 181.2,76.0 L 182.0,76.8 L 182.2,77.0 L 183.0,77.8 L 183.2,78.0 L 184.0,78.8 L 184.2,79.0 L 184.2,80.0 L 185.0,80.8 L 185.2,81.0 L 185.2,82.0 L 186.0,82.8 L 186.2,83.0 L 186.2,84.0 L 187.0,84.8 L 187.2,85.0 L 187.2,86.0 L 187.2,87.0 L 188.0,87.8 L 188.2,88.0 L 188.2,89.0 L 188.2,90.0 L 188.2,91.0 L 188.2,92.0 L 188.2,93.0 L 189.0,93.8 L 189.2,94.0 L 189.2,95.0 L 189.2,96.0 L 189.0,96.2 L 188.2,97.0 L 188.2,98.0 L 188.2,99.0 L 188.2,100.0 L 188.2,101.0 L 188.2,102.0 L 188.0,102.2 L 187.2,103.0 L 187.2,104.0 L 187.0,104.2 L 186.2,105.0 L 186.2,106.0 L 186.2,107.0 L 186.0,107.2 L 185.2,108.0 L 185.0,108.2 L 184.2,109.0 L 184.2,110.0 L 184.0,110.2 L 183.2,111.0 L 183.0,111.2 L 182.2,112.0 L 182.2,113.0 L 182.0,113.2 L 181.2,114.0 L 181.0,114.2 L 180.2,115.0 L 180.0,115.2 L 179.2,116.0 L 179.2,117.0 L 179.0,117.2 L 178.2,118.0 L 178.2,119.0 L 178.0,119.2 L 177.2,120.0 L 177.2,121.0 L 177.2,122.0 L 177.2,123.0 L 177.0,123.2 L 176.2,124.0 L 176.2,125.0 L 176.2,126.0 L 176.2,127.0 L 177.0,127.8 L 177.2,128.0 L 177.2,129.0 L 177.2,130.0 L 177.2,131.0 L 178.0,131.8 L 178.2,132.0 L 178.2,133.0 L 178.2,134.0 L 179.0,134.8 L 179.2,135.0 L 179.2,136.0 L 180.0,136.8 L 180.2,137.0 L 180.2,138.0 L 181.0,138.8 L 181.2,139.0 L 181.2,140.0 L 182.0,140.8 L 182.2,141.0 L 183.0,141.8 L 183.2,142.0 L 183.2,143.0 L 184.0,143.8 L 184.2,144.0 L 184.2,145.0 L 185.0,145.8 L 185.2,146.0 L 186.0,146.8 L 186.2,147.0 L 186.2,148.0 L 187.0,148.8 L 187.2,149.0 L 187.2,150.0 L 188.0,150.8 L 188.2,151.0 L 188.2,152.0 L 189.0,152.8 L 189.2,153.0 L 189.2,154.0 L 190.0,154.8 L 190.2,155.0 L 190.2,156.0 L 190.2,157.0 L 190.2,158.0 L 190.2,159.0 L 191.0,159.8 L 191.2,160.0 L 191.0,160.2 L 190.2,161.0 L 190.2,162.0 L 190.2,163.0 L 190.0,163.2 L 189.2,164.0 L 189.2,165.0 L 189.0,165.2 L 188.2,166.0 L 188.0,166.2 L 187.0,166.2 L 186.2,167.0 L 186.0,167.2 L 185.0,167.2 L 184.2,168.0 L 184.0,168.2" fill="none" stroke="purple" stroke-width="2" /></svg>